# xmcd
# Track frame offsets:
# 150
# 12800
# 31310
# 43107
# 56022
# 70175
# 82010
# 93882
# 109472
# 123737
# 140297
# 156687
# 167607
# 179622
# 193150
# 205075
# 217702
# 234150
# 247900
# 263067
#
# Disc length: 3682 seconds
# Revision: 0
# Processed by: cddbd v1.4PL0 Copyright (c) Steve Scherf et al.
# Submitted via: VisiTrax 2.9.5.181 - For more info visit www.synapsa.com
#
DISCID=180e6014
DTITLE=40 MORE FAVOURITE BALLADS - Various Artists CD 1
DYEAR=1988
DGENRE=Easy Listening
TTITLE0=ANNE MURRAY - Tennesse Waltz
TTITLE1=KENNY ROGERS - She Believes In Me
TTITLE2=AL MARTINO - Red Roses For A Blue Lady
TTITLE3=GLEN CAMPBELL - Gentle On My Mind
TTITLE4=NAT KING COLE - When I Fall In Love
TTITLE5=MARTY ROBBINS - 18 Yellow Roses
TTITLE6=CHARLIE RICH - The Most Beautiful Girl In The World
TTITLE7=JOHNNY MATHIS - Feelings
TTITLE8=RAY CONNIFF - After The Lovin'
TTITLE9=ANDY WILLIAMS - Maria
TTITLE10=DORIS DAY - Secret Love
TTITLE11=MARTY ROBBINS - I Don't Know Why
TTITLE12=CHARLIE RICH - Rollin' With The Flow
TTITLE13=JOHNNY MATHIS - Yesterday When I Was Young
TTITLE14=RAY CONNIFF - This Is My Song
TTITLE15=ANY WILLIAMS - Days Of Wine and Roses
TTITLE16=BARBARA STREISAND - People
TTITLE17=TONY BENNETT - Stranger In Paradise
TTITLE18=NAT KING COLE - Mona Lisa
TTITLE19=AL MARTINO - Mary In The Morning
EXTD=CD 8310442-1 EMI
EXTT0=
EXTT1=
EXTT2=
EXTT3=
EXTT4=
EXTT5=
EXTT6=
EXTT7=
EXTT8=
EXTT9=
EXTT10=
EXTT11=
EXTT12=
EXTT13=
EXTT14=
EXTT15=
EXTT16=
EXTT17=
EXTT18=
EXTT19=
PLAYORDER=
